HIERARCHY
ROOT ui
{
	 OFFSET 0 0 0
	 CHANNELS 3 XPosition YPosition Z Position
	 EndSite
	 {
	 OFFSET 0 -1 0
	 }
}
ROOT li
{
	 OFFSET 0 0 0
	 CHANNELS 3 XPosition YPosition Z Position
	 EndSite
	 {
	 OFFSET 0 -1 0
	 }
}
ROOT ul
{
	 OFFSET 0 0 0
	 CHANNELS 3 XPosition YPosition Z Position
	 EndSite
	 {
	 OFFSET 0 -1 0
	 }
}
ROOT ll
{
	 OFFSET 0 0 0
	 CHANNELS 3 XPosition YPosition Z Position
	 EndSite
	 {
	 OFFSET 0 -1 0
	 }
}
ROOT tt
{
	 OFFSET 0 0 0
	 CHANNELS 3 XPosition YPosition Z Position
	 EndSite
	 {
	 OFFSET 0 -1 0
	 }
}
ROOT tb
{
	 OFFSET 0 0 0
	 CHANNELS 3 XPosition YPosition Z Position
	 EndSite
	 {
	 OFFSET 0 -1 0
	 }
}
ROOT td
{
	 OFFSET 0 0 0
	 CHANNELS 3 XPosition YPosition Z Position
	 EndSite
	 {
	 OFFSET 0 -1 0
	 }
}
ROOT v
{
	 OFFSET 0 0 0
	 CHANNELS 3 XPosition YPosition Z Position
	 EndSite
	 {
	 OFFSET 0 -1 0
	 }
}
ROOT bn
{
	 OFFSET 0 0 0
	 CHANNELS 3 XPosition YPosition Z Position
	 EndSite
	 {
	 OFFSET 0 -1 0
	 }
}
MOTION
Frames: 18
Frame Time: 0.002
4.480699822306633E-5	-4.9510002136230465E-6	0		0.45604586791992185	-2.403283447265625	0		-1.1156505126953125	-0.07078627014160156	0		-0.916108642578125	-2.304708251953125	0		1.6536051025390626	-0.4921750183105469	0		3.40137060546875	-0.08917057800292968	0		4.75025	-0.10852940368652343	0		5.52196728515625	0.0754080810546875	0		-0.24719093322753907	5.86950634765625	0		
-0.0167691707611084	0.010440352439880372	0		0.44359066772460937	-2.399993896484375	0		-1.1295191650390626	-0.06410196685791016	0		-0.917587646484375	-2.306193359375	0		1.6905299072265625	-0.4976324462890625	0		3.386450439453125	-0.08855772399902344	0		4.74911767578125	-0.13037002563476563	0		5.5139453125	0.06044825744628906	0		-0.27974041748046874	5.86517138671875	0		
-0.0018184250593185425	-0.003408411979675293	0		0.4670672607421875	-2.407032958984375	0		-1.12844970703125	-0.06356683731079102	0		-0.91905029296875	-2.3086865234375	0		1.658455322265625	-0.5024124450683594	0		3.4084365234375	-0.09723808288574219	0		4.74931640625	-0.11614556121826172	0		5.51910986328125	0.0664532699584961	0		-0.29143560791015627	5.85565087890625	0		
-0.0037837579250335693	-0.006093395233154297	0		0.41368252563476565	-2.401314453125	0		-1.1254769287109374	-0.07106613922119141	0		-0.9225054321289062	-2.31217041015625	0		1.664356201171875	-0.5085216674804688	0		3.4045498046875	-0.09061402130126953	0		4.75526806640625	-0.12589829254150392	0		5.526099609375	0.0565304069519043	0		-0.274063720703125	5.86484814453125	0		
-0.017618122100830077	0.007343751907348633	0		0.45217855834960935	-2.409487060546875	0		-1.15246337890625	-0.07128421783447265	0		-0.9918165893554688	-2.302006591796875	0		1.6403663330078124	-0.5013018798828125	0		3.410497802734375	-0.0980258560180664	0		4.760349609375	-0.11955819702148437	0		5.52630615234375	0.07177327728271485	0		-0.09051850128173829	5.90337060546875	0		
-0.0017515339851379395	-0.005518485069274903	0		0.42781570434570315	-2.40402294921875	0		-1.1144788818359375	-0.0711765594482422	0		-0.9152376098632813	-2.304323974609375	0		1.689235595703125	-0.5057857666015625	0		3.411479736328125	-0.09832453155517579	0		4.763337890625	-0.11910912322998046	0		5.53224560546875	0.06406063079833985	0		-0.2358450927734375	5.871173828125	0		
-0.005755080223083496	-0.001180727005004883	0		0.48031930541992185	-2.41233984375	0		-1.1184923095703125	-0.06666918182373047	0		-0.9516105346679687	-2.301515869140625	0		1.6701256103515625	-0.5045503540039062	0		3.432470947265625	-0.09376581573486328	0		4.764275390625	-0.1195492401123047	0		5.5332109375	0.06350331115722656	0		-0.10076361846923829	5.8931181640625	0		
-0.014751764297485351	0.008208064079284668	0		0.4430023498535156	-2.402722412109375	0		-1.0805947265625	-0.06662403106689453	0		-0.8821072387695312	-2.310827880859375	0		1.6879239501953125	-0.5086675415039063	0		3.413315673828125	-0.09873033905029296	0		4.76110546875	-0.1258591766357422	0		5.52412841796875	0.06315330505371093	0		-0.26735272216796874	5.867177734375	0		
9.699230194091797E-4	-0.004668355941772461	0		0.4504674072265625	-2.413567138671875	0		-1.12671923828125	-0.06372123718261719	0		-0.95445751953125	-2.304672607421875	0		1.6687257080078124	-0.5083703002929687	0		3.41822705078125	-0.09288693237304688	0		4.75502490234375	-0.11905482482910157	0		5.5358037109375	0.04468023681640625	0		-0.26383749389648437	5.86546728515625	0		
0.0017790659666061402	-0.004393518924713135	0		0.4550927124023437	-2.408379638671875	0		-1.1109808349609376	-0.0694955062866211	0		-0.9059630126953125	-2.312816650390625	0		1.68339892578125	-0.5164088745117188	0		3.443993896484375	-0.09621564483642578	0		4.76480078125	-0.12134402465820313	0		5.5406923828125	0.05136715316772461	0		-0.2463445587158203	5.8755966796875	0		
0.009613757133483886	0.0027988319396972656	0		0.4596974792480469	-2.40419189453125	0		-1.1431923828125	-0.0657802734375	0		-0.9702493896484375	-2.29877392578125	0		1.674246337890625	-0.5041719360351562	0		3.41977978515625	-0.0929613037109375	0		4.76165869140625	-0.11142506408691406	0		5.526576171875	0.06234079360961914	0		-0.2291237335205078	5.873712890625	0		
0.010323763847351074	0.0030588979721069337	0		0.4831697082519531	-2.4112109375	0		-1.071534423828125	-0.07021305847167969	0		-0.901816162109375	-2.310185302734375	0		1.6878349609375	-0.5121633911132812	0		3.41641845703125	-0.09888492584228516	0		4.77028466796875	-0.11856825256347656	0		5.53319189453125	0.05316839599609375	0		-0.22703311157226563	5.87297802734375	0		
0.0039053449630737304	-0.0036129910945892334	0		0.45471499633789064	-2.40966796875	0		-1.145865478515625	-0.06808856201171876	0		-0.94816650390625	-2.299375244140625	0		1.668467041015625	-0.5117807312011718	0		3.42704833984375	-0.10091838073730469	0		4.77584814453125	-0.12661684417724609	0		5.53387353515625	0.055134265899658204	0		-0.09282957458496094	5.894791015625	0		
0.00450569486618042	-0.003371164083480835	0		0.45522515869140623	-2.409443115234375	0		-1.108269775390625	-0.06820819854736328	0		-0.912708984375	-2.30447998046875	0		1.6660157470703125	-0.5145682983398437	0		3.41766748046875	-0.09869563293457032	0		4.76544482421875	-0.12643359375	0		5.53853076171875	0.06012480545043945	0		-0.25931524658203126	5.8678642578125	0		
0.005043517112731934	-0.0031401491165161132	0		0.42872775268554686	-2.40692724609375	0		-1.1447313232421874	-0.06754454040527344	0		-0.9643009033203125	-2.310656494140625	0		1.66957373046875	-0.5114109497070313	0		3.4222685546875	-0.0925921859741211	0		4.7751435546875	-0.11141840362548829	0		5.53499365234375	0.053264888763427734	0		-0.24351437377929688	5.87893701171875	0		
0.01258804702758789	0.004002608776092529	0		0.4601856994628906	-2.405052978515625	0		-1.1032335205078125	-0.06476007080078125	0		-0.9327649536132813	-2.301764892578125	0		1.6839468994140625	-0.5193650512695313	0		3.422735595703125	-0.0924152603149414	0		4.76154541015625	-0.11710456085205079	0		5.5295615234375	0.06248048400878906	0		-0.22402812194824218	5.87395166015625	0		
-0.04709465026855469	-0.0021295759677886963	0		0.42469451904296873	-2.393450439453125	0		-1.14387353515625	-0.06709886932373046	0		-0.9093692626953125	-2.300806396484375	0		1.681292724609375	-0.5231259765625	0		3.433103271484375	-0.094322265625	0		4.772923828125	-0.11802513122558594	0		5.53995166015625	0.06256937789916993	0		-0.08939321899414063	5.894689453125	0		
0.006208253860473633	-0.00251286506652832	0		0.5107941284179688	-2.414190673828125	0		-1.0845157470703124	-0.06255650329589844	0		-0.8991341552734375	-2.308724365234375	0		1.6816026611328125	-0.5229151611328124	0		3.40843359375	-0.09182420349121094	0		4.75633056640625	-0.10860513305664063	0		5.5302578125	0.0629189338684082	0		-0.22336466979980468	5.87435791015625	0		
